<?xml version="1.0" encoding="utf-8"?>
<!-- Generator: Adobe Illustrator 21.0.2, SVG Export Plug-In . SVG Version: 6.00 Build 0)  -->
<svg version="1.1" id="Layer_1" xmlns="http://www.w3.org/2000/svg" xmlns:xlink="http://www.w3.org/1999/xlink" x="0px" y="0px"
	 viewBox="0 0 72 72" style="enable-background:new 0 0 72 72;" xml:space="preserve">
<style type="text/css">
	.st0{fill:#31313D;}
</style>
<path class="st0" d="M51.2,17.9c-10.4-7-11.7-17.3-11.7-17.3V0.4H36l0.3,53.2c-2.4-2.3-6-3.8-10-3.8c-7.3,0-13.3,5-13.3,11.1
	C13,67,19,71.8,26.3,71.8c7.3,0,13.2-4.5,13.3-11h-0.1v0.1c0,0,0,0,0,0c0,0,0,0,0,0l-0.1-34.9c1.7,2.7,4.7,5.8,10.1,9.9
	c10.8,8.1,3.1,16.5,3.1,16.5c5.7-2.8,7.9-10.1,2.6-16.3C59.7,31.7,59.9,23.7,51.2,17.9z M51.1,32.4c-9.4-6.3-11.4-15.2-11.7-17
	l0-4.2c1.7,2.7,4.7,5.9,10.2,9.9c7.1,5.3,6.2,10.7,4.7,13.8C53.4,34.1,52.4,33.3,51.1,32.4z"/>
</svg>
