<?xml version="1.0" encoding="utf-8"?>
<!-- Generator: Adobe Illustrator 21.0.2, SVG Export Plug-In . SVG Version: 6.00 Build 0)  -->
<svg version="1.1" id="Layer_1" xmlns="http://www.w3.org/2000/svg" xmlns:xlink="http://www.w3.org/1999/xlink" x="0px" y="0px"
	 viewBox="0 0 72 72" style="enable-background:new 0 0 72 72;" xml:space="preserve">
<style type="text/css">
	.st0{fill:#31313D;}
</style>
<path d="M46.1,58c1.8-0.1,3.4,1.5,3.4,3.3c0,1.8-1.6,3.4-3.4,3.5c-1.8,0.1-3.2-1.3-3.2-3.2C42.9,59.7,44.3,58.1,46.1,58z"/>
<path class="st0" d="M50.2,17.7c-10.4-7-11.8-17.2-11.8-17.3V0.3h-3.1l0.3,53c-2.4-2.3-6-3.8-9.9-3.8c-7.3,0-13.2,4.9-13.2,11
	c0,6.1,5.9,10.9,13.2,10.9c7.2,0,13.1-4.5,13.2-11H39v0.1c0,0,0,0,0,0c0,0,0,0,0,0l-0.3-49.5c1.7,2.7,4.6,5.8,10.1,9.9
	c10.8,8.1,3,16.4,3,16.4C58.6,34.1,60.3,24.4,50.2,17.7z"/>
</svg>
