<?xml version="1.0" encoding="utf-8"?>
<!-- Generator: Adobe Illustrator 21.0.2, SVG Export Plug-In . SVG Version: 6.00 Build 0)  -->
<svg version="1.1" id="Layer_1" xmlns="http://www.w3.org/2000/svg" xmlns:xlink="http://www.w3.org/1999/xlink" x="0px" y="0px"
	 viewBox="0 0 72 72" style="enable-background:new 0 0 72 72;" xml:space="preserve">
<style type="text/css">
	.st0{fill:#31313D;}
</style>
<path class="st0" d="M44.1,60.9C44.1,60.9,44.1,60.9,44.1,60.9C44.1,60.9,44.1,60.9,44.1,60.9L43.9,0.3h-3.3l0.3,53.3
	c-2.4-2.3-6-3.8-10-3.8c-7.3,0-13.3,5-13.3,11.1c0,6.1,6,11,13.3,11C38.1,71.8,44,67.3,44.1,60.9L44.1,60.9L44.1,60.9z M30.9,68.4
	c-5.4,0-9.7-3.4-9.7-7.5c0-4.1,4.4-7.5,9.7-7.5c5.4,0,9.7,3.4,9.7,7.5C40.6,65,36.2,68.4,30.9,68.4z"/>
<path d="M51.5,57.7c1.8-0.1,3.3,1.5,3.3,3.3c0,1.8-1.6,3.6-3.3,3.6c-1.8,0.1-3.2-1.5-3.2-3.4C48.4,59.4,49.7,57.7,51.5,57.7z"/>
</svg>
