<?xml version="1.0" encoding="utf-8"?>
<!-- Generator: Adobe Illustrator 21.0.2, SVG Export Plug-In . SVG Version: 6.00 Build 0)  -->
<svg version="1.1" id="Layer_1" xmlns="http://www.w3.org/2000/svg" xmlns:xlink="http://www.w3.org/1999/xlink" x="0px" y="0px"
	 viewBox="0 0 72 72" style="enable-background:new 0 0 72 72;" xml:space="preserve">
<style type="text/css">
	.st0{fill:#31313D;}
</style>
<path class="st0" d="M17.5,60.5c0,6.1,5.9,10.8,13.1,10.8c7.2,0,13-4.5,13.1-10.9h0.1v0.1c0,0,0,0,0,0c0,0,0,0,0,0L43.6,0.6h-3.3
	l0.3,52.7c-2.4-2.3-5.9-3.7-9.9-3.7C23.4,49.6,17.5,54.5,17.5,60.5"/>
<path d="M52.1,57.6c1.8-0.1,3.4,1.5,3.4,3.3c0,1.9-1.6,3.6-3.4,3.7c-1.8,0.1-3.2-1.5-3.2-3.4C48.9,59.3,50.3,57.7,52.1,57.6z"/>
</svg>
