<?xml version="1.0" encoding="utf-8"?>
<!-- Generator: Adobe Illustrator 21.0.2, SVG Export Plug-In . SVG Version: 6.00 Build 0)  -->
<svg version="1.1" id="Layer_1" xmlns="http://www.w3.org/2000/svg" xmlns:xlink="http://www.w3.org/1999/xlink" x="0px" y="0px"
	 viewBox="0 0 72 72" style="enable-background:new 0 0 72 72;" xml:space="preserve">
<style type="text/css">
	.st0{fill:#31313D;}
</style>
<path class="st0" d="M48.8,60.8C48.8,60.8,48.8,60.8,48.8,60.8C48.8,60.8,48.8,60.8,48.8,60.8L48.6,0.5h-3.3l0.3,53
	c-2.4-2.3-6-3.8-9.9-3.8c-7.3,0-13.2,4.9-13.2,11c0,6.1,5.9,10.9,13.2,10.9C42.9,71.7,48.7,67.2,48.8,60.8L48.8,60.8L48.8,60.8z
	 M35.6,68.3c-5.3,0-9.7-3.4-9.7-7.5c0-4.1,4.3-7.5,9.7-7.5c5.3,0,9.7,3.4,9.7,7.5C45.3,64.9,41,68.3,35.6,68.3z"/>
</svg>
