<?xml version="1.0" encoding="utf-8"?>
<!-- Generator: Adobe Illustrator 21.0.2, SVG Export Plug-In . SVG Version: 6.00 Build 0)  -->
<svg version="1.1" id="Layer_1" xmlns="http://www.w3.org/2000/svg" xmlns:xlink="http://www.w3.org/1999/xlink" x="0px" y="0px"
	 viewBox="0 0 72 72" style="enable-background:new 0 0 72 72;" xml:space="preserve">
<style type="text/css">
	.st0{fill:#31313D;}
</style>
<path class="st0" d="M49.7,36c0-2.9-1.5-5.7-3.3-7.1c-2.5-2.3-6.1-3.8-10.1-3.8c-7.4,0-13.4,5-13.4,11.2c0,6.2,6,11,13.4,11
	C43.7,47.3,49.6,42.5,49.7,36L49.7,36L49.7,36C49.7,35.9,49.7,36,49.7,36z M36.3,43.8c-5.4,0-9.8-3.4-9.8-7.6c0-4.2,4.4-7.6,9.8-7.6
	c5.4,0,9.8,3.4,9.8,7.6C46.1,40.4,41.7,43.8,36.3,43.8z"/>
</svg>
